<?xml version="1.0"?>
<svg xmlns="http://www.w3.org/2000/svg" xmlns:xlink="http://www.w3.org/1999/xlink" xmlns:svgjs="http://svgjs.com/svgjs" version="1.1" width="512" height="512" x="0" y="0" viewBox="0 0 512 512" style="enable-background:new 0 0 512 512" xml:space="preserve" class=""><g>
<path xmlns="http://www.w3.org/2000/svg" style="" d="M256,0C115.3,0,0,115.3,0,256s115.3,256,256,256s256-115.3,256-256S396.7,0,256,0z" fill="#826289" data-original="#77dd00" class=""/>
<path xmlns="http://www.w3.org/2000/svg" style="" d="M512,256c0,140.7-115.3,256-256,256V0C396.7,0,512,115.3,512,256z" fill="#6f567e" data-original="#66bb00" class=""/>
<polygon xmlns="http://www.w3.org/2000/svg" style="" points="406,226 406,286 286,286 286,406 226,406 226,286 106,286 106,226 226,226 226,106 286,106   286,226 " fill="#e7e7e7" data-original="#e7e7e7" class=""/>
<polygon xmlns="http://www.w3.org/2000/svg" style="" points="406,226 406,286 286,286 286,406 256,406 256,106 286,106 286,226 " fill="#d3d3d8" data-original="#d3d3d8" class=""/>
<g xmlns="http://www.w3.org/2000/svg">
</g>
<g xmlns="http://www.w3.org/2000/svg">
</g>
<g xmlns="http://www.w3.org/2000/svg">
</g>
<g xmlns="http://www.w3.org/2000/svg">
</g>
<g xmlns="http://www.w3.org/2000/svg">
</g>
<g xmlns="http://www.w3.org/2000/svg">
</g>
<g xmlns="http://www.w3.org/2000/svg">
</g>
<g xmlns="http://www.w3.org/2000/svg">
</g>
<g xmlns="http://www.w3.org/2000/svg">
</g>
<g xmlns="http://www.w3.org/2000/svg">
</g>
<g xmlns="http://www.w3.org/2000/svg">
</g>
<g xmlns="http://www.w3.org/2000/svg">
</g>
<g xmlns="http://www.w3.org/2000/svg">
</g>
<g xmlns="http://www.w3.org/2000/svg">
</g>
<g xmlns="http://www.w3.org/2000/svg">
</g>
</g></svg>
